<svg xmlns="http://www.w3.org/2000/svg" width="1024" height="1024" viewBox="0 0 1024 1024">
  <defs>
    <linearGradient id="bg" x1="178" y1="128" x2="858" y2="894" gradientUnits="userSpaceOnUse">
      <stop stop-color="#2563EB"/>
      <stop offset="0.52" stop-color="#4F46E5"/>
      <stop offset="1" stop-color="#7C3AED"/>
    </linearGradient>
    <linearGradient id="shine" x1="248" y1="168" x2="798" y2="774" gradientUnits="userSpaceOnUse">
      <stop stop-color="#FFFFFF" stop-opacity="0.38"/>
      <stop offset="1" stop-color="#FFFFFF" stop-opacity="0"/>
    </linearGradient>
    <filter id="shadow" x="170" y="170" width="684" height="690" filterUnits="userSpaceOnUse" color-interpolation-filters="sRGB">
      <feDropShadow dx="0" dy="34" stdDeviation="34" flood-color="#1E1B4B" flood-opacity="0.28"/>
    </filter>
  </defs>
  <rect x="92" y="92" width="840" height="840" rx="206" fill="url(#bg)"/>
  <rect x="142" y="120" width="740" height="740" rx="180" fill="url(#shine)"/>
  <path filter="url(#shadow)" d="M512 724c-17-17-50-42-86-70-96-76-204-161-204-287 0-80 62-142 143-142 49 0 95 24 123 63 28-39 74-63 123-63 81 0 143 62 143 142 0 126-108 211-204 287-36 28-69 53-86 70-8 8-20 8-28 0Z" fill="#fff"/>
  <path d="M674 338c-12-38-44-58-84-58" fill="none" stroke="#DBEAFE" stroke-width="34" stroke-linecap="round" opacity="0.9"/>
  <circle cx="752" cy="246" r="38" fill="#22C55E"/>
  <circle cx="824" cy="314" r="24" fill="#F59E0B"/>
</svg>
